<svg xmlns="http://www.w3.org/2000/svg" version="1.1" xmlns:xlink="http://www.w3.org/1999/xlink" xmlns:svgjs="http://svgjs.com/svgjs" width="512" height="512" x="0" y="0" viewBox="0 0 512 512" style="enable-background:new 0 0 512 512" xml:space="preserve" class=""><g><circle cx="256" cy="256" r="256" fill="#032fff" data-original="#32bea6" class=""></circle><path fill="#ffffff" d="M400.971 248.245c0 49.031-39.891 88.922-88.922 88.922H165.656l28.197 28.197c6.249 6.248 6.249 16.379 0 22.627-3.124 3.124-7.219 4.687-11.313 4.687s-8.189-1.563-11.313-4.687l-55.511-55.511c-6.249-6.248-6.249-16.379 0-22.627l55.511-55.511c6.248-6.248 16.379-6.248 22.627 0 6.249 6.248 6.249 16.379 0 22.627l-28.197 28.197H312.05c31.387 0 56.922-25.535 56.922-56.922s-25.535-56.922-56.922-56.922H133.347c-8.837 0-16-7.163-16-16s7.163-16 16-16h178.702c49.031.001 88.922 39.892 88.922 88.923z" data-original="#ffffff"></path></g></svg>