<?xml version="1.0" encoding="UTF-8"?>
<svg id="_레이어_2" data-name="레이어 2" xmlns="http://www.w3.org/2000/svg" viewBox="0 0 208.05 212.3">
  <defs>
    <style>
      .cls-1 {
        fill: #3e82f1;
      }

      .cls-1, .cls-2, .cls-3, .cls-4 {
        fill-rule: evenodd;
      }

      .cls-2 {
        fill: #e74133;
      }

      .cls-3 {
        fill: #32a753;
      }

      .cls-4 {
        fill: #f9bb00;
      }
    </style>
  </defs>
  <g id="_구글" data-name="구글">
    <g>
      <path class="cls-1" d="m208.05,108.56c0-7.53-.68-14.76-1.93-21.71h-99.97v41.06h57.13c-2.46,13.27-9.94,24.51-21.18,32.04v26.63h34.31c20.07-18.48,31.65-45.69,31.65-78.02h0Z"/>
      <path class="cls-3" d="m106.15,212.3c28.66,0,52.69-9.51,70.25-25.72l-34.31-26.63c-9.51,6.37-21.66,10.13-35.95,10.13-27.65,0-51.05-18.67-59.4-43.76H11.29v27.5c17.47,34.69,53.36,58.48,94.86,58.48h0Z"/>
      <path class="cls-4" d="m46.75,126.32c-2.12-6.37-3.33-13.17-3.33-20.17s1.21-13.8,3.33-20.17v-27.5H11.29C4.1,72.81,0,89.02,0,106.15s4.1,33.34,11.29,47.67l35.46-27.5h0Z"/>
      <path class="cls-2" d="m106.15,42.22c15.58,0,29.58,5.36,40.58,15.87l30.45-30.45C158.79,10.52,134.76,0,106.15,0,64.65,0,28.76,23.79,11.29,58.48l35.46,27.5c8.35-25.09,31.75-43.76,59.4-43.76h0Z"/>
    </g>
  </g>
</svg>