<svg id="Capa_1" enable-background="new 0 0 512.004 512.004" height="512" viewBox="0 0 512.004 512.004" width="512" xmlns="http://www.w3.org/2000/svg"><g><path d="m286.002 0h-271c-8.401 0-15 6.599-15 15v241c0 8.399 6.599 15 15 15h46v45c0 6 3.6 11.4 9.3 13.799 5.4 2.401 12.001 1.201 16.199-3.3l55.802-55.499h158.699v-256c0-8.401-6.599-15-15-15z" fill="#e1a6ff"/><path d="m301.002 15v256h-150v-271h135c8.401 0 15 6.599 15 15z" fill="#b58dff"/><path d="m497.002 151h-151-150c-8.291 0-15 6.709-15 15v270c0 8.291 6.709 15 15 15h150 23.789l55.605 56.605c4.363 4.363 10.895 5.546 16.348 3.252 5.596-2.314 9.258-7.793 9.258-13.857v-46h46c8.291 0 15-6.709 15-15v-270c0-8.291-6.709-15-15-15z" fill="#e6f3ff"/><path d="m425.396 507.605c4.363 4.363 10.895 5.546 16.348 3.252 5.596-2.314 9.258-7.793 9.258-13.857v-46h46c8.291 0 15-6.709 15-15v-270c0-8.291-6.709-15-15-15h-151v300h23.789z" fill="#cce6ff"/><path d="m241.002 106c0 8.399-6.599 15-15 15h-150c-8.401 0-15-6.601-15-15 0-8.401 6.599-15 15-15h150c8.401 0 15 6.599 15 15z" fill="#e6f3ff"/><path d="m136.002 181h-60c-8.291 0-15-6.709-15-15s6.709-15 15-15h60c8.291 0 15 6.709 15 15s-6.709 15-15 15z" fill="#e6f3ff"/><path d="m301.002 391h-45c-8.284 0-15-6.716-15-15v-90c0-8.284 6.716-15 15-15h75v97.895z" fill="#5cc3e6"/><path d="m436.002 271h-75v-30c0-10.984-6.194-20.176-15-25.402-4.479-2.659-9.415-4.598-15-4.598h-15c-8.284 0-15 6.714-15 15v165h45 90c8.284 0 15-6.716 15-15v-90c0-8.286-6.716-15-15-15z" fill="#ffd9b3"/><path d="m451.002 376v-90c0-8.286-6.716-15-15-15h-75v-30c0-10.984-6.194-20.176-15-25.402v175.402h90c8.284 0 15-6.716 15-15z" fill="#fb9"/><path d="m241.002 106c0 8.399-6.599 15-15 15h-75v-30h75c8.401 0 15 6.599 15 15z" fill="#cce6ff"/></g></svg>