<svg xmlns="http://www.w3.org/2000/svg" version="1.1" xmlns:xlink="http://www.w3.org/1999/xlink" xmlns:svgjs="http://svgjs.com/svgjs" width="512" height="512" x="0" y="0" viewBox="0 0 24 24" style="enable-background:new 0 0 512 512" xml:space="preserve"><g><path d="M0 19a5.006 5.006 0 0 0 5 5h14a5.006 5.006 0 0 0 5-5v-9H0Zm17-4.5a1.5 1.5 0 1 1-1.5 1.5 1.5 1.5 0 0 1 1.5-1.5Zm-5 0a1.5 1.5 0 1 1-1.5 1.5 1.5 1.5 0 0 1 1.5-1.5Zm-5 0A1.5 1.5 0 1 1 5.5 16 1.5 1.5 0 0 1 7 14.5ZM19 2h-1V1a1 1 0 0 0-2 0v1H8V1a1 1 0 0 0-2 0v1H5a5.006 5.006 0 0 0-5 5v1h24V7a5.006 5.006 0 0 0-5-5Z" fill="#ffffff" data-original="#000000"></path></g></svg>