<svg id="Capa_1" enable-background="new 0 0 511.919 511.919" height="512" viewBox="0 0 511.919 511.919" width="512" xmlns="http://www.w3.org/2000/svg"><g><g><path d="m453.959 398.239h-396c-6.914 0-12.932-4.726-14.572-11.442l-42.958-175.942c-1.468-6.01.905-12.305 5.976-15.851 5.07-3.544 11.796-3.615 16.938-.173l61.362 41.062 24.256-62.987c1.809-4.698 5.854-8.175 10.771-9.258 4.917-1.084 10.049.372 13.664 3.875l53.391 51.72 56.158-98.021c2.673-4.665 7.638-7.543 13.015-7.543s10.342 2.878 13.015 7.543l56.158 98.021 53.391-51.72c3.616-3.503 8.746-4.959 13.664-3.875 4.916 1.083 8.961 4.56 10.771 9.258l24.256 62.987 61.362-41.062c5.141-3.441 11.868-3.371 16.938.173 5.07 3.546 7.443 9.841 5.976 15.851l-42.958 175.941c-1.642 6.717-7.66 11.443-14.574 11.443z" fill="#ffd845"/></g><path d="m505.514 195.004c-5.07-3.544-11.797-3.614-16.938-.173l-61.362 41.062-24.256-62.987c-1.809-4.698-5.854-8.175-10.771-9.258-4.918-1.084-10.048.372-13.664 3.875l-53.391 51.72-56.158-98.021c-2.673-4.665-7.638-7.543-13.015-7.543-.003 0-.007 0-.01 0v284.558h198.01c6.914 0 12.932-4.726 14.572-11.442l42.958-175.941c1.468-6.009-.905-12.304-5.975-15.85z" fill="#ffb454"/><circle cx="92.953" cy="323.864" fill="#4793ff" r="15"/><circle cx="174.454" cy="323.864" fill="#ff7d47" r="15"/><circle cx="255.956" cy="323.864" fill="#e78ef4" r="15"/><circle cx="337.458" cy="323.864" fill="#ff405c" r="15"/><circle cx="418.96" cy="323.864" fill="#525cdd" r="15"/><path d="m255.956 308.864c-.002 0-.005 0-.007 0v29.999h.007c8.284 0 15-6.716 15-15s-6.715-14.999-15-14.999z" fill="#b473f1"/></g></svg>