<svg xmlns="http://www.w3.org/2000/svg" version="1.1" xmlns:xlink="http://www.w3.org/1999/xlink" xmlns:svgjs="http://svgjs.com/svgjs" width="512" height="512" x="0" y="0" viewBox="0 0 24 24" style="enable-background:new 0 0 512 512" xml:space="preserve" class=""><g><path d="M13-.004H5c-2.757 0-5 2.243-5 5V17.85a2.147 2.147 0 0 0 3.34 1.789l3.963-2.643H13c2.757 0 5-2.243 5-5v-7c0-2.757-2.243-5-5-5Zm11 9V21.85A2.147 2.147 0 0 1 21.851 24c-.416 0-.831-.121-1.19-.36l-3.964-2.644H11a4.973 4.973 0 0 1-3.661-1.62l.569-.38H13c3.859 0 7-3.141 7-7v-7c0-.308-.027-.608-.065-.906A5.003 5.003 0 0 1 24 8.996Z" fill="#ffffff" data-original="#000000" class=""></path></g></svg>