<svg xmlns="http://www.w3.org/2000/svg" version="1.1" xmlns:xlink="http://www.w3.org/1999/xlink" xmlns:svgjs="http://svgjs.com/svgjs" width="512" height="512" x="0" y="0" viewBox="0 0 24 24" style="enable-background:new 0 0 512 512" xml:space="preserve" class=""><g><path d="M0 18V5c0-2.206 1.794-4 4-4h2c.464 0 .928.109 1.342.316l3.155 1.578c.138.069.293.105.447.105H16c2.757 0 5 2.243 5 5H10.024a6.035 6.035 0 0 0-5.754 4.303l-2.673 9.339A4.972 4.972 0 0 1 0 17.999Zm23.493-6.983a2.53 2.53 0 0 0-2.008-1.025c-.015 0-.027.008-.042.008H10.024a4.022 4.022 0 0 0-3.834 2.862l-2.818 9.843A4.944 4.944 0 0 0 5 23h12.558c2.226 0 4.15-1.432 4.802-3.607l1.532-6.116a2.535 2.535 0 0 0-.398-2.26Z" fill="#ffffff" data-original="#000000"></path></g></svg>