<svg xmlns="http://www.w3.org/2000/svg" version="1.1" xmlns:xlink="http://www.w3.org/1999/xlink" xmlns:svgjs="http://svgjs.com/svgjs" width="512" height="512" x="0" y="0" viewBox="0 0 24 24" style="enable-background:new 0 0 512 512" xml:space="preserve" class=""><g><path d="M22.925 5.695a1.934 1.934 0 0 0-2.037.183L18.944 7.76C18.58 5.077 16.28 3 13.5 3h-8A5.506 5.506 0 0 0 0 8.5v7C0 18.532 2.467 21 5.5 21h8c2.772 0 5.067-2.065 5.441-4.736l1.947 1.846a1.945 1.945 0 0 0 2.145.126c.63-.364.967-1.088.967-1.816V7.434c0-.741-.412-1.408-1.075-1.739ZM16 15.5c0 1.379-1.121 2.5-2.5 2.5h-8A2.503 2.503 0 0 1 3 15.5v-7C3 7.121 4.122 6 5.5 6h8C14.879 6 16 7.121 16 8.5v7Z" fill="#ffffff" data-original="#000000"></path></g></svg>