<svg xmlns="http://www.w3.org/2000/svg" version="1.1" xmlns:xlink="http://www.w3.org/1999/xlink" xmlns:svgjs="http://svgjs.com/svgjs" width="512" height="512" x="0" y="0" viewBox="0 0 512.074 512.074" style="enable-background:new 0 0 512 512" xml:space="preserve" class=""><g><path d="M490.727 21.379A71.615 71.615 0 0 0 422.93 2.051L96.786 70.595C34.85 79.76-7.929 137.399 1.236 199.334a113.365 113.365 0 0 0 31.997 63.581l34.965 34.987a8.533 8.533 0 0 1 2.539 6.123v64.512c.047 40.134 32.57 72.657 72.704 72.704h64.512c2.303 0 4.513.913 6.144 2.539l34.965 34.965a112.726 112.726 0 0 0 79.893 33.28 114.167 114.167 0 0 0 36.416-5.995c40.491-13.447 69.914-48.61 76.011-90.837l68.544-325.12a72.148 72.148 0 0 0-19.199-68.694zM66.599 167a48.469 48.469 0 0 1 40.128-33.173c.754-.1 1.5-.228 2.24-.384L393.17 73.71 134.738 331.992v-27.968a72.15 72.15 0 0 0-21.333-51.392l-34.923-34.965A48.512 48.512 0 0 1 66.599 167zm311.936 236.118c-.171.747-.277 1.493-.384 2.24-3.705 27.023-28.614 45.926-55.637 42.221a49.387 49.387 0 0 1-28.203-13.997l-34.944-34.944a72.17 72.17 0 0 0-51.413-21.333h-27.968l258.368-258.432-59.819 284.245z" fill="#ffffff" data-original="#000000"></path></g></svg>