<svg id="Capa_1" enable-background="new 0 0 512 512" height="512" viewBox="0 0 512 512" width="512" xmlns="http://www.w3.org/2000/svg"><g><path d="m49.548 33.032c-9.121 0-16.516 7.394-16.516 16.516v33.032h33.032v-33.032c.001-9.122-7.394-16.516-16.516-16.516z" fill="#dad8db"/><path d="m363.355 33.032c-9.121 0-16.516 7.394-16.516 16.516v33.032h33.032v-33.032c0-9.122-7.395-16.516-16.516-16.516z" fill="#dad8db"/><path d="m412.903 390h-381.642c-13.682 0-24.774-11.092-24.774-24.774v-249.613l16.513-16.516h373.391l16.512 16.516z" fill="#eceaec"/><g fill="#fff"><path d="m107.355 198.194h-49.549c-4.561 0-8.258-3.697-8.258-8.258v-16.516c0-4.561 3.697-8.258 8.258-8.258h49.548c4.561 0 8.258 3.697 8.258 8.258v16.516c.001 4.56-3.696 8.258-8.257 8.258z"/><path d="m107.355 297.29h-49.549c-4.561 0-8.258-3.697-8.258-8.258v-16.516c0-4.561 3.697-8.258 8.258-8.258h49.548c4.561 0 8.258 3.697 8.258 8.258v16.516c.001 4.561-3.696 8.258-8.257 8.258z"/><path d="m107.355 247.742h-49.549c-4.561 0-8.258-3.697-8.258-8.258v-16.516c0-4.561 3.697-8.258 8.258-8.258h49.548c4.561 0 8.258 3.697 8.258 8.258v16.516c.001 4.561-3.696 8.258-8.257 8.258z"/><path d="m107.355 346.839h-49.549c-4.561 0-8.258-3.697-8.258-8.258v-16.516c0-4.561 3.697-8.258 8.258-8.258h49.548c4.561 0 8.258 3.697 8.258 8.258v16.516c.001 4.56-3.696 8.258-8.257 8.258z"/><path d="m189.935 198.194h-49.548c-4.561 0-8.258-3.697-8.258-8.258v-16.516c0-4.561 3.697-8.258 8.258-8.258h49.548c4.561 0 8.258 3.697 8.258 8.258v16.516c.001 4.56-3.697 8.258-8.258 8.258z"/></g><path d="m189.935 297.29h-49.548c-4.561 0-8.258-3.697-8.258-8.258v-16.516c0-4.561 3.697-8.258 8.258-8.258h49.548c4.561 0 8.258 3.697 8.258 8.258v16.516c.001 4.561-3.697 8.258-8.258 8.258z" fill="#ff8086"/><path d="m189.935 247.742h-49.548c-4.561 0-8.258-3.697-8.258-8.258v-16.516c0-4.561 3.697-8.258 8.258-8.258h49.548c4.561 0 8.258 3.697 8.258 8.258v16.516c.001 4.561-3.697 8.258-8.258 8.258z" fill="#fff"/><path d="m189.935 346.839h-49.548c-4.561 0-8.258-3.697-8.258-8.258v-16.516c0-4.561 3.697-8.258 8.258-8.258h49.548c4.561 0 8.258 3.697 8.258 8.258v16.516c.001 4.56-3.697 8.258-8.258 8.258z" fill="#fff"/><path d="m272.516 198.194h-49.548c-4.561 0-8.258-3.697-8.258-8.258v-16.516c0-4.561 3.697-8.258 8.258-8.258h49.548c4.561 0 8.258 3.697 8.258 8.258v16.516c0 4.56-3.697 8.258-8.258 8.258z" fill="#fff"/><path d="m272.516 297.29h-49.548c-4.561 0-8.258-3.697-8.258-8.258v-16.516c0-4.561 3.697-8.258 8.258-8.258h49.548c4.561 0 8.258 3.697 8.258 8.258v16.516c0 4.561-3.697 8.258-8.258 8.258z" fill="#fff"/><path d="m272.516 247.742h-49.548c-4.561 0-8.258-3.697-8.258-8.258v-16.516c0-4.561 3.697-8.258 8.258-8.258h49.548c4.561 0 8.258 3.697 8.258 8.258v16.516c0 4.561-3.697 8.258-8.258 8.258z" fill="#fff"/><path d="m272.516 346.839h-49.548c-4.561 0-8.258-3.697-8.258-8.258v-16.516c0-4.561 3.697-8.258 8.258-8.258h49.548c4.561 0 8.258 3.697 8.258 8.258v16.516c0 4.56-3.697 8.258-8.258 8.258z" fill="#ff8086"/><path d="m355.097 198.194h-49.548c-4.561 0-8.258-3.697-8.258-8.258v-16.516c0-4.561 3.697-8.258 8.258-8.258h49.548c4.561 0 8.258 3.697 8.258 8.258v16.516c0 4.56-3.697 8.258-8.258 8.258z" fill="#ff8086"/><path d="m355.097 297.29h-49.548c-4.561 0-8.258-3.697-8.258-8.258v-16.516c0-4.561 3.697-8.258 8.258-8.258h49.548c4.561 0 8.258 3.697 8.258 8.258v16.516c0 4.561-3.697 8.258-8.258 8.258z" fill="#fff"/><path d="m355.097 247.742h-49.548c-4.561 0-8.258-3.697-8.258-8.258v-16.516c0-4.561 3.697-8.258 8.258-8.258h49.548c4.561 0 8.258 3.697 8.258 8.258v16.516c0 4.561-3.697 8.258-8.258 8.258z" fill="#fff"/><path d="m355.097 346.839h-49.548c-4.561 0-8.258-3.697-8.258-8.258v-16.516c0-4.561 3.697-8.258 8.258-8.258h49.548c4.561 0 8.258 3.697 8.258 8.258v16.516c0 4.56-3.697 8.258-8.258 8.258z" fill="#fff"/><path d="m49.548 379.871c-18.243 0-33.032-14.789-33.032-33.032v-247.742h-.003l-16.513 16.516v256c0 13.682 11.092 24.774 24.774 24.774h388.129v-16.516z" fill="#dad8db"/><path d="m388.129 66.064h-363.355c-2.896 0-5.675.497-8.259 1.41l-5.015 23.365 5.016 24.774h396.387v-24.774c0-13.683-11.092-24.775-24.774-24.775z" fill="#ff8086"/><path d="m512 371.613c0 26.488-9.593 50.735-25.494 69.457-19.692 23.186-49.058 35.93-81.861 35.93-59.29 0-101.312-46.097-101.312-105.387 0-32.782 8.651-62.133 31.811-81.824 18.728-15.923 42.992-25.531 69.5-25.531 59.292 0 107.356 48.064 107.356 107.355z" fill="#dad8db"/><circle cx="404.645" cy="371.613" fill="#fff" r="74.323"/><path d="m445.935 379.871h-41.29l-5.839-2.419-24.774-24.774c-3.226-3.226-3.226-8.452 0-11.677s8.452-3.226 11.677 0l22.355 22.355h37.871c4.565 0 8.258 3.698 8.258 8.258s-3.693 8.257-8.258 8.257z" fill="#ff8086"/><path d="m16.516 67.476c-9.6 3.413-16.516 12.592-16.516 23.363v24.774h16.516z" fill="#e5646e"/><circle cx="404.645" cy="371.613" fill="#857e87" r="8.258"/><path d="m417.032 466.581c-59.29 0-107.355-48.065-107.355-107.355 0-26.491 9.563-50.714 25.467-69.437-23.182 19.692-37.854 49.025-37.854 81.824 0 59.29 48.065 107.355 107.355 107.355 32.799 0 62.168-14.716 81.861-37.898-18.723 15.904-42.983 25.511-69.474 25.511z" fill="#c8c5c9"/></g></svg>