<svg id="Capa_1" enable-background="new 0 0 512 512" height="512" viewBox="0 0 512 512" width="512" xmlns="http://www.w3.org/2000/svg"><g><g><path d="m449.705 156.604h-387.41c-14.893 0-26.967 12.073-26.967 26.967v176.363h441.344v-176.363c0-14.893-12.074-26.967-26.967-26.967z" fill="#ff9a00"/><g><g><path d="m103.532 0c-19.002 0-34.406 15.404-34.406 34.406v443.188c0 19.002 15.404 34.406 34.406 34.406h304.936c19.002 0 34.406-15.404 34.406-34.406v-371.5c0-6.913-2.746-13.542-7.634-18.431l-80.03-80.03c-4.888-4.887-11.518-7.633-18.431-7.633z" fill="#f5f5f5"/><g><path d="m435.239 87.664-53.048-53.048-.189 88.985c-.012 5.586 4.513 10.121 10.099 10.121 5.578 0 10.099 4.522 10.099 10.099v333.774c0 19.002-15.404 34.406-34.406 34.406h40.672c19.002 0 34.406-15.404 34.406-34.406v-336.614-34.887c.002-6.913-2.744-13.542-7.633-18.43z" fill="#eaeaea"/></g><path d="m435.239 87.664-80.03-80.03c-2.228-2.228-4.821-4.005-7.634-5.286v58.544c0 19.002 15.404 34.406 34.406 34.406h58.544c-1.28-2.814-3.057-5.406-5.286-7.634z" fill="#a8d0d5"/></g></g><g><g><g><path d="m189.954 255.506-7.112-16.096c-4.316-9.767-13.988-16.068-24.666-16.068h-95.881c-14.893 0-26.967 12.073-26.967 26.967v234.724c0 14.893 12.073 26.967 26.967 26.967h387.41c14.893 0 26.967-12.073 26.967-26.967v-186.491c0-14.893-12.073-26.967-26.967-26.967h-235.084c-10.679 0-20.351-6.301-24.667-16.069z" fill="#ffb541"/></g></g><g><g fill="#ffa812"><path d="m141.811 239.41 7.112 16.096c4.316 9.767 13.988 16.068 24.666 16.068h41.03c-10.678-.001-20.349-6.301-24.665-16.068l-7.112-16.096c-4.316-9.767-13.988-16.068-24.666-16.068h-41.03c10.678.001 20.349 6.301 24.665 16.068z"/><path d="m449.705 271.575h-41.029c14.892.001 26.964 12.074 26.964 26.967v186.492c0 14.893-12.073 26.967-26.967 26.967h41.031c14.893 0 26.967-12.073 26.967-26.967v-186.493c.001-14.893-12.072-26.966-26.966-26.966z"/></g></g><g><g><g><g><g><g><g><path d="m193.367 56.638h-76.425c-4.268 0-7.728-3.46-7.728-7.728s3.46-7.728 7.728-7.728h76.425c4.268 0 7.728 3.46 7.728 7.728s-3.459 7.728-7.728 7.728z" fill="#3693bd"/></g><g><path d="m193.367 103.112h-76.425c-4.268 0-7.728-3.46-7.728-7.728s3.46-7.728 7.728-7.728h76.425c4.268 0 7.728 3.46 7.728 7.728s-3.459 7.728-7.728 7.728z" fill="#3693bd"/></g></g></g></g></g></g></g></g></g></g></svg>