<svg xmlns="http://www.w3.org/2000/svg" version="1.1" xmlns:xlink="http://www.w3.org/1999/xlink" xmlns:svgjs="http://svgjs.com/svgjs" width="512" height="512" x="0" y="0" viewBox="0 0 24 24" style="enable-background:new 0 0 512 512" xml:space="preserve" class=""><g><path d="M19 2h-1V1a1 1 0 0 0-2 0v1H8V1a1 1 0 0 0-2 0v1H5a5.006 5.006 0 0 0-5 5v12a5.006 5.006 0 0 0 5 5h14a5.006 5.006 0 0 0 5-5V7a5.006 5.006 0 0 0-5-5ZM2 7a3 3 0 0 1 3-3h14a3 3 0 0 1 3 3v1H2Zm17 15H5a3 3 0 0 1-3-3v-9h20v9a3 3 0 0 1-3 3Z" fill="#2f353e" data-original="#000000"></path><circle cx="12" cy="15" r="1.5" fill="#2f353e" data-original="#000000"></circle><circle cx="7" cy="15" r="1.5" fill="#2f353e" data-original="#000000"></circle><circle cx="17" cy="15" r="1.5" fill="#2f353e" data-original="#000000"></circle></g></svg>