<?xml version="1.0" encoding="UTF-8"?>
<svg id="_레이어_2" data-name="레이어 2" xmlns="http://www.w3.org/2000/svg" viewBox="0 0 35.71 35.54">
  <defs>
    <style>
      .cls-1 {
        fill: none;
        stroke: #2f353e;
        stroke-miterlimit: 10;
        stroke-width: 2px;
      }
    </style>
  </defs>
  <g id="_레이어_2-2" data-name=" 레이어 2">
    <g id="in">
      <polygon class="cls-1" points="11.14 1 11.14 14.49 12.04 14.49 12.04 1.9 33.81 1.9 33.81 33.64 12.04 33.64 12.04 21.05 11.14 21.05 11.14 34.54 34.71 34.54 34.71 1 11.14 1"/>
      <path class="cls-1" d="m17.76,13.99h0c-.17.17-.17.46,0,.63l2.71,2.71H1.45c-.25,0-.45.2-.45.45h0c0,.25.2.45.45.45h19.02l-2.71,2.71c-.17.17-.17.46,0,.63h0c.17.17.46.17.63,0l3.5-3.5c.16-.16.16-.41,0-.56l-3.5-3.5c-.17-.17-.46-.17-.63,0Z"/>
    </g>
  </g>
</svg>