<svg xmlns="http://www.w3.org/2000/svg" version="1.1" xmlns:xlink="http://www.w3.org/1999/xlink" xmlns:svgjs="http://svgjs.com/svgjs" width="512" height="512" x="0" y="0" viewBox="0 0 24 24" style="enable-background:new 0 0 512 512" xml:space="preserve"><g><path d="M18.5 1h-13A5.506 5.506 0 0 0 0 6.5v11C0 20.533 2.467 23 5.5 23h13c3.033 0 5.5-2.467 5.5-5.5v-11C24 3.467 21.533 1 18.5 1ZM21 7h-3.879l2.651-2.651A2.502 2.502 0 0 1 21 6.5V7ZM9.121 7l3-3h3.758l-3 3H9.121ZM5.5 4h2.379l-3 3H3v-.5C3 5.122 4.122 4 5.5 4Zm13 16h-13A2.503 2.503 0 0 1 3 17.5V10h18v7.5c0 1.378-1.122 2.5-2.5 2.5Zm-3.453-4.2-4.634 2.48A.933.933 0 0 1 9 17.48v-4.961a.933.933 0 0 1 1.413-.8l4.634 2.48a.933.933 0 0 1 0 1.6Z" fill="#ffffff" data-original="#000000"></path></g></svg>