<svg xmlns="http://www.w3.org/2000/svg" version="1.1" xmlns:xlink="http://www.w3.org/1999/xlink" xmlns:svgjs="http://svgjs.com/svgjs" width="512" height="512" x="0" y="0" viewBox="0 0 24 24" style="enable-background:new 0 0 512 512" xml:space="preserve" class=""><g><path d="M21 3h-2V2a1 1 0 0 0-2 0v1H7V2a1 1 0 0 0-2 0v1H3a3 3 0 0 0-3 3v12a3 3 0 0 0 3 3h18a3 3 0 0 0 3-3V6a3 3 0 0 0-3-3zM5 5h2v1a1 1 0 0 0 2 0V5h10v1a1 1 0 0 0 2 0V5h2a1 1 0 0 1 1 1v2H2V6a1 1 0 0 1 1-1zm16 14H3a1 1 0 0 1-1-1V10h20v8a1 1 0 0 1-1 1z" fill="#2f353e" data-original="#000000"></path><path d="M8 13h2a1 1 0 0 0 0-2H8a1 1 0 0 0 0 2zM16 13h2a1 1 0 0 0 0-2h-2a1 1 0 0 0 0 2zM12 13h2a1 1 0 0 0 0-2h-2a1 1 0 0 0 0 2zM8 17h2a1 1 0 0 0 0-2H8a1 1 0 0 0 0 2zM12 17h2a1 1 0 0 0 0-2h-2a1 1 0 0 0 0 2z" fill="#2f353e" data-original="#000000"></path></g></svg>