<svg xmlns="http://www.w3.org/2000/svg" version="1.1" xmlns:xlink="http://www.w3.org/1999/xlink" xmlns:svgjs="http://svgjs.com/svgjs" width="512" height="512" x="0" y="0" viewBox="0 0 24 24" style="enable-background:new 0 0 512 512" xml:space="preserve" class=""><g><path d="M23.493 11.017a2.534 2.534 0 0 0-2.05-1.03H21V8c0-2.757-2.243-5-5-5h-5.056c-.154 0-.31-.037-.447-.105L7.342 1.317A3.015 3.015 0 0 0 6 1.001H4A4.003 4.003 0 0 0 0 5v13c0 2.757 2.243 5 5 5h12.558c2.226 0 4.15-1.432 4.802-3.607l1.532-6.116a2.535 2.535 0 0 0-.398-2.26ZM2 18V5c0-1.103.897-2 2-2h2c.154 0 .31.037.447.105l3.155 1.578c.414.207.878.316 1.342.316H16c1.654 0 3 1.346 3 3v1.987H8.615a4.015 4.015 0 0 0-3.789 2.72l-2.19 7.138A2.987 2.987 0 0 1 2 17.999Zm19.964-5.253-1.532 6.115A2.982 2.982 0 0 1 17.558 21H5c-.208 0-.411-.021-.607-.062l2.334-7.609a2.001 2.001 0 0 1 1.889-1.342h12.828c.242 0 .383.14.445.224.062.084.156.259.075.536Z" fill="#2f353e" data-original="#000000"></path></g></svg>